# xmcd
#
# Track frame offsets: 
#        183
#        19950
#        34108
#        53683
#        70133
#        102095
#        118195
#        135408
#        151040
#        164565
#        180240
#
# Disc length: 2698 seconds
#
# Revision: 91
# Processed by: cddbd v1.5.2PL0 Copyright (c) Steve Scherf et al.
# Submitted via: ExactAudioCopy v1.5
#
DISCID=850a880b
DTITLE=Eric Clapton - Time pieces
DYEAR=1982
DGENRE=Blues
TTITLE0=I shot the sheriff
TTITLE1=After midnight
TTITLE2=Knockin' on heaven's door
TTITLE3=Wonderful tonight
TTITLE4=Layla
TTITLE5=Cocaine
TTITLE6=Lay down Sally
TTITLE7=Willie and the hand jive
TTITLE8=Promises
TTITLE9=Swing low sweet chariot
TTITLE10=Let it grow
EXTD=YEAR: 1982
EXTT0=Bob Marley - 1974
EXTT1=J.J. Cale - 1970
EXTT2=Bob Dylan - 1975
EXTT3=Eric Clapton - Michael Kamen - 1977
EXTT4=Eric Clapton - Jim Gordon - 1970
EXTT5=J.J. Cale - 1977
EXTT6=Eric Clapton - George Terry - Marcy Levy - 1977
EXTT7=Johnny Otis - 1974
EXTT8=Richard Feldman - Roger Linn - 1978
EXTT9=Traditional - 1975
EXTT10=Eric Clapton - 1974
PLAYORDER=
